<svg id="Grupo_1" data-name="Grupo 1" xmlns="http://www.w3.org/2000/svg" width="35.179" height="36.53" viewBox="0 0 35.179 36.53">
  <path id="Icon_awesome-thumbs-up" data-name="Icon awesome-thumbs-up" d="M24.414,31.325c0-2.982,1.826-4.655,2.34-6.648L15.437,23.441a4.2,4.2,0,0,1-4.187-4.085A5.091,5.091,0,0,1,12.617,15.9l.008-.008a5.873,5.873,0,0,1,.654-5.588,5.56,5.56,0,0,1,1.152-5.256,3.733,3.733,0,0,1,.432-3.138C16.3-.155,38.379.572,38.379,1.032V20.818a.843.843,0,0,1-.25.6c-2.785,2.752-5.9,10.048-6.266,11.572-.313,1.3-.967,4.064-2.386,4.064C27.789,37.052,24.414,36.49,24.414,31.325Z" transform="translate(-11.25 -0.523)" fill="#fff"/>
  <rect id="Rectángulo_1" data-name="Rectángulo 1" width="7" height="20" transform="translate(28.179 0.552)" fill="#fff"/>
</svg>
