<svg xmlns="http://www.w3.org/2000/svg" width="35.179" height="36.53" viewBox="0 0 35.179 36.53">
  <g id="Grupo_1" data-name="Grupo 1" transform="translate(-993 -536.023)">
    <path id="Icon_awesome-thumbs-up" data-name="Icon awesome-thumbs-up" d="M25.215,6.25c0,2.982-1.826,4.655-2.34,6.648l11.317,1.237a4.2,4.2,0,0,1,4.187,4.085,5.091,5.091,0,0,1-1.367,3.459L37,21.686a5.873,5.873,0,0,1-.654,5.588A5.56,5.56,0,0,1,35.2,32.53a3.733,3.733,0,0,1-.432,3.138C33.331,37.73,11.25,37,11.25,36.543V16.757a.843.843,0,0,1,.25-.6c2.785-2.752,5.9-10.048,6.266-11.572.313-1.3.967-4.064,2.386-4.064C21.84.523,25.215,1.085,25.215,6.25Z" transform="translate(989.8 535.5)" fill="#fff"/>
    <rect id="Rectángulo_1" data-name="Rectángulo 1" width="7" height="20" transform="translate(993 552)" fill="#fff"/>
  </g>
</svg>
