<svg xmlns="http://www.w3.org/2000/svg" width="23.58" height="22.789" viewBox="0 0 23.58 22.789">
  <path id="Trazado_7" data-name="Trazado 7" d="M1103.506,544.638l-2.752,8.48-4.44-13.747,1.614-.205c.378-.322.568-1.1-.293-1.055s-6.074.541-6.543.747-.205.5.176.7a2.833,2.833,0,0,0,1.218.118l6.93,19.463,4.835-13.017,4.636,12.769,5.355-14.405s.461-4.289-.1-5.679a5.033,5.033,0,0,0-1.391-2.078c-.893-.942-3.333-.091-3.122,2.19s2.36,2.182,2.36,5.716-2.164,7.694-2.164,7.694l-4.165-13.035s.425-.015,1.35-.117c.673-.075.413-1.073.085-1a2.035,2.035,0,0,0-.613,0c-1.364.132-5.185-.169-6.053-.072s-1.01,1.223.214,1.187,1.027,0,1.027,0Z" transform="translate(-1090.84 -536.354)" fill="#fff"/>
</svg>
